<svg width="40" height="40" viewBox="0 0 40 40" fill="none" xmlns="http://www.w3.org/2000/svg">
<g id="tabler:bike-off">
<path id="Vector" d="M27.3949 27.4C26.8115 28.3572 26.5667 29.4828 26.6998 30.5958C26.8329 31.7089 27.3362 32.745 28.1289 33.5377C28.9216 34.3303 29.9577 34.8336 31.0707 34.9668C32.1838 35.0999 33.3093 34.8551 34.2666 34.2717M36.6666 30C36.6666 28.6739 36.1398 27.4021 35.2021 26.4645C34.2644 25.5268 32.9927 25 31.6666 25M19.9999 31.6667V25L14.9999 20L17.7749 17.78M21.4666 14.8267L23.3333 13.3333L26.6666 18.3333H31.6666M4.99992 5L34.9999 35M3.33325 30C3.33325 31.3261 3.86004 32.5979 4.79772 33.5355C5.7354 34.4732 7.00717 35 8.33325 35C9.65933 35 10.9311 34.4732 11.8688 33.5355C12.8065 32.5979 13.3333 31.3261 13.3333 30C13.3333 28.6739 12.8065 27.4021 11.8688 26.4645C10.9311 25.5268 9.65933 25 8.33325 25C7.00717 25 5.7354 25.5268 4.79772 26.4645C3.86004 27.4021 3.33325 28.6739 3.33325 30ZM26.6666 8.33333C26.6666 8.77536 26.8422 9.19928 27.1547 9.51184C27.4673 9.8244 27.8912 10 28.3333 10C28.7753 10 29.1992 9.8244 29.5118 9.51184C29.8243 9.19928 29.9999 8.77536 29.9999 8.33333C29.9999 7.89131 29.8243 7.46738 29.5118 7.15482C29.1992 6.84226 28.7753 6.66667 28.3333 6.66667C27.8912 6.66667 27.4673 6.84226 27.1547 7.15482C26.8422 7.46738 26.6666 7.89131 26.6666 8.33333Z" stroke="#B91646" stroke-width="4" stroke-linecap="round" stroke-linejoin="round"/>
</g>
</svg>
