<svg width="40" height="34" viewBox="0 0 40 34" fill="none" xmlns="http://www.w3.org/2000/svg">
<g id="Group">
<path id="Vector" d="M9.09089 0C8.60868 0 8.14621 0.188533 7.80524 0.524125C7.46426 0.859716 7.27271 1.31488 7.27271 1.78947V5.36842C7.27271 5.84302 7.46426 6.29818 7.80524 6.63377C8.14621 6.96936 8.60868 7.1579 9.09089 7.1579C9.5731 7.1579 10.0356 6.96936 10.3765 6.63377C10.7175 6.29818 10.9091 5.84302 10.9091 5.36842V1.78947C10.9091 1.31488 10.7175 0.859716 10.3765 0.524125C10.0356 0.188533 9.5731 0 9.09089 0Z" fill="#B91646"/>
<path id="Vector_2" fill-rule="evenodd" clip-rule="evenodd" d="M21.8182 34C24.3963 33.9997 26.8911 33.101 28.8603 31.4633C30.8295 29.8255 32.146 27.5545 32.5764 25.0527H32.7273C34.6561 25.0527 36.506 24.2985 37.8699 22.9562C39.2338 21.6138 40 19.7931 40 17.8948C40 15.9964 39.2338 14.1757 37.8699 12.8334C36.506 11.491 34.6561 10.7369 32.7273 10.7369V8.94739H0V23.2632C0 26.1108 1.14935 28.8417 3.1952 30.8553C5.24105 32.8688 8.01582 34 10.9091 34H21.8182ZM3.63636 12.5263V23.2632C3.63636 25.1616 4.4026 26.9822 5.7665 28.3246C7.1304 29.6669 8.98024 30.4211 10.9091 30.4211H21.8182C23.747 30.4211 25.5969 29.6669 26.9608 28.3246C28.3247 26.9822 29.0909 25.1616 29.0909 23.2632V12.5263H3.63636ZM36.3636 17.8948C36.3636 18.844 35.9805 19.7543 35.2986 20.4255C34.6166 21.0966 33.6917 21.4737 32.7273 21.4737V14.3158C33.6917 14.3158 34.6166 14.6929 35.2986 15.3641C35.9805 16.0352 36.3636 16.9456 36.3636 17.8948Z" fill="#B91646"/>
<path id="Vector_3" d="M14.5454 1.78947C14.5454 1.31488 14.737 0.859716 15.0779 0.524125C15.4189 0.188533 15.8814 0 16.3636 0C16.8458 0 17.3083 0.188533 17.6492 0.524125C17.9902 0.859716 18.1818 1.31488 18.1818 1.78947V5.36842C18.1818 5.84302 17.9902 6.29818 17.6492 6.63377C17.3083 6.96936 16.8458 7.1579 16.3636 7.1579C15.8814 7.1579 15.4189 6.96936 15.0779 6.63377C14.737 6.29818 14.5454 5.84302 14.5454 5.36842V1.78947ZM23.6363 0C23.1541 0 22.6916 0.188533 22.3507 0.524125C22.0097 0.859716 21.8181 1.31488 21.8181 1.78947V5.36842C21.8181 5.84302 22.0097 6.29818 22.3507 6.63377C22.6916 6.96936 23.1541 7.1579 23.6363 7.1579C24.1185 7.1579 24.581 6.96936 24.922 6.63377C25.2629 6.29818 25.4545 5.84302 25.4545 5.36842V1.78947C25.4545 1.31488 25.2629 0.859716 24.922 0.524125C24.581 0.188533 24.1185 0 23.6363 0Z" fill="#B91646"/>
</g>
</svg>
