<svg width="40" height="40" viewBox="0 0 40 40" fill="none" xmlns="http://www.w3.org/2000/svg">
<path fill-rule="evenodd" clip-rule="evenodd" d="M20 37.7778C29.8189 37.7778 37.7778 29.8189 37.7778 20C37.7778 10.1811 29.8189 2.22222 20 2.22222C10.1811 2.22222 2.22222 10.1811 2.22222 20C2.22222 29.8189 10.1811 37.7778 20 37.7778ZM20 40C31.0456 40 40 31.0456 40 20C40 8.95444 31.0456 0 20 0C8.95444 0 0 8.95444 0 20C0 31.0456 8.95444 40 20 40Z" fill="#B91646"/>
<path fill-rule="evenodd" clip-rule="evenodd" d="M11.8833 24.4445C13.611 28.7022 16.7944 31.1111 19.9999 31.1111C23.2066 31.1111 26.3888 28.7022 28.1166 24.4445H11.8833ZM19.9999 33.3333C15.5133 33.3333 11.6244 29.9467 9.71326 25C9.69456 24.9523 9.67604 24.9045 9.6577 24.8567C9.16215 23.5333 10.2221 22.2222 11.6366 22.2222H28.3644C29.7788 22.2222 30.8399 23.5333 30.3421 24.8567C30.3242 24.9045 30.306 24.9523 30.2877 25C28.3755 29.9467 24.4866 33.3333 19.9999 33.3333Z" fill="#B91646"/>
<path d="M17.0023 18.2688C17.1468 17.8711 17.1034 17.3855 16.9845 16.9433C16.8414 16.434 16.6122 15.953 16.3068 15.5211C15.6612 14.5999 14.5912 13.7544 13.1457 13.6922C11.649 13.6299 10.5312 14.5799 9.84232 15.5877C9.51145 16.0728 9.25143 16.6026 9.0701 17.1611C8.91121 17.6566 8.82676 18.1633 8.88232 18.5688C8.89509 18.6613 8.93095 18.7491 8.98659 18.824C9.04223 18.899 9.11586 18.9587 9.20068 18.9977C9.2855 19.0366 9.37877 19.0536 9.47188 19.047C9.565 19.0404 9.65495 19.0105 9.73343 18.9599C10.1779 18.6755 10.6434 18.2855 11.0745 17.9255C11.2701 17.7611 11.4601 17.6033 11.6357 17.4644C12.2601 16.9711 12.7468 16.6899 13.149 16.6699C13.5323 16.6511 13.9745 16.8699 14.5323 17.2877C14.7323 17.4366 14.9257 17.5944 15.1257 17.7588L15.3423 17.9355C15.6134 18.1544 15.9023 18.3788 16.1934 18.5544C16.2637 18.5967 16.3424 18.623 16.424 18.6313C16.5055 18.6397 16.5879 18.6298 16.6653 18.6025C16.7426 18.5752 16.8129 18.5311 16.8712 18.4735C16.9295 18.4158 16.9742 18.3459 17.0023 18.2688ZM22.9034 18.2688C22.759 17.8711 22.8034 17.3855 22.9223 16.9433C23.0468 16.4811 23.2768 15.9844 23.6001 15.5211C24.2445 14.5999 25.3157 13.7544 26.7612 13.6922C28.2568 13.6299 29.3757 14.5799 30.0645 15.5877C30.4134 16.0988 30.6734 16.6522 30.8368 17.1611C30.9945 17.6566 31.079 18.1633 31.0234 18.5688C31.0106 18.6611 30.9747 18.7487 30.9191 18.8235C30.8636 18.8983 30.7901 18.9579 30.7054 18.9969C30.6208 19.0358 30.5277 19.0529 30.4347 19.0464C30.3417 19.04 30.2519 19.0102 30.1734 18.9599C29.729 18.6755 29.2623 18.2855 28.8323 17.9255C28.6473 17.7694 28.4603 17.6156 28.2712 17.4644C27.6457 16.9711 27.1601 16.6899 26.7568 16.6699C26.3745 16.6511 25.9312 16.8699 25.3745 17.2877C25.1745 17.4366 24.9812 17.5944 24.7812 17.7588L24.5634 17.9355C24.2942 18.1605 24.0102 18.3672 23.7134 18.5544C23.6432 18.5969 23.5644 18.6234 23.4826 18.6318C23.4009 18.6403 23.3184 18.6305 23.2409 18.6031C23.1634 18.5758 23.093 18.5317 23.0346 18.4739C22.9763 18.4161 22.9315 18.346 22.9034 18.2688Z" fill="#B91646"/>
</svg>
