<svg width="40" height="40" viewBox="0 0 40 40" fill="none" xmlns="http://www.w3.org/2000/svg">
<g id="ion:barbell-outline">
<path id="Vector" d="M3.75 20H36.25" stroke="#B91646" stroke-width="3" stroke-linecap="round" stroke-linejoin="round"/>
<path id="Vector_2" d="M32.5 11.25C32.5 10.5596 31.9404 10 31.25 10C30.5596 10 30 10.5596 30 11.25V28.75C30 29.4404 30.5596 30 31.25 30C31.9404 30 32.5 29.4404 32.5 28.75V11.25Z" stroke="#B91646" stroke-width="3" stroke-linecap="round" stroke-linejoin="round"/>
<path id="Vector_3" d="M10 11.25C10 10.5596 9.44036 10 8.75 10C8.05964 10 7.5 10.5596 7.5 11.25V28.75C7.5 29.4404 8.05964 30 8.75 30C9.44036 30 10 29.4404 10 28.75V11.25Z" stroke="#B91646" stroke-width="3" stroke-linecap="round" stroke-linejoin="round"/>
<path id="Vector_4" d="M3.75 15.625C3.75 15.2798 3.47018 15 3.125 15C2.77982 15 2.5 15.2798 2.5 15.625V24.375C2.5 24.7202 2.77982 25 3.125 25C3.47018 25 3.75 24.7202 3.75 24.375V15.625Z" stroke="#B91646" stroke-width="3" stroke-linecap="round" stroke-linejoin="round"/>
<path id="Vector_5" d="M37.5 15.625C37.5 15.2798 37.2202 15 36.875 15C36.5298 15 36.25 15.2798 36.25 15.625V24.375C36.25 24.7202 36.5298 25 36.875 25C37.2202 25 37.5 24.7202 37.5 24.375V15.625Z" stroke="#B91646" stroke-width="3" stroke-linecap="round" stroke-linejoin="round"/>
</g>
</svg>
